<svg xmlns="http://www.w3.org/2000/svg" pointer-events="none" class="leaflet-zoom-animated" width="1280" height="847" viewBox="-107 -71 1280 847" style="transform: translate3d(-107px, -71px, 0px);"><g><path class="leaflet-interactive" stroke="#201920" stroke-opacity="1" stroke-width="2" stroke-linecap="round" stroke-linejoin="round" fill="none" d="M295 310L295 306L294 307L292 303L296 301L295 298L298 295L299 296L302 293L304 293L304 291L307 292L309 290L310 293L316 293L321 285L326 286L329 283L330 284L330 282L336 280L339 277L346 275L346 268L349 265L348 264L351 263L351 259L348 252L348 246L344 244L344 242L357 238L365 240L366 239L363 236L363 234L369 216L376 219L385 220L389 218L391 216L389 205L393 201L395 202L398 200L400 196L399 195L401 193L407 193L409 200L414 202L416 206L422 206L423 209L426 208L426 210L429 212L431 219L433 219L434 222L434 225L432 227L433 230L431 233L432 240L433 239L436 241L437 240L443 242L453 242L464 250L469 250L468 253L470 253L471 258L477 267L483 266L502 269L518 269L525 274L526 273L531 276L541 277L542 279L546 280L549 277L566 270L576 271L587 268L595 260L599 259L602 256L598 250L599 245L602 241L615 245L619 243L624 237L631 237L637 232L636 231L641 226L645 226L646 223L650 224L652 222L657 221L659 223L666 222L665 217L655 207L650 206L646 210L637 208L634 211L631 208L631 206L633 204L640 184L648 188L655 183L661 181L662 178L660 178L660 176L665 169L667 161L670 158L672 158L673 155L672 150L670 148L667 149L667 147L675 139L676 140L692 136L696 136L700 139L701 138L703 141L706 142L712 142L712 145L714 145L715 149L718 151L717 154L719 155L718 156L721 161L720 162L722 163L722 169L725 172L726 179L728 179L727 184L730 188L737 187L737 189L743 189L743 191L745 191L749 196L753 196L751 199L754 203L752 205L756 211L767 210L772 205L774 206L781 202L788 202L785 203L784 208L786 210L780 216L781 217L778 224L779 227L772 240L769 241L762 238L760 240L761 241L755 243L758 253L758 259L756 265L751 267L752 270L749 267L749 265L746 264L745 269L743 271L742 270L739 275L731 275L734 280L732 282L725 281L723 279L724 278L722 278L723 277L720 278L715 287L708 290L702 295M335 377L332 374L332 372L335 369L337 373L339 371L339 367L334 361L334 357L337 354L331 350L329 342L324 343L317 340L317 338L314 339L312 336L313 333L310 330L308 330L308 328L300 326L302 324L304 325M561 467L559 467L560 464L558 464L560 460L558 458L553 459L549 455L547 455L545 459L540 459L537 462L535 460L533 460L530 463L527 460L525 460L524 463L519 462L519 474L515 473L515 469L507 471L507 469L505 469L504 466L500 466L500 460L502 458L497 456L497 452L495 450L497 448L491 448L487 450L486 449L488 447L486 445L488 441L487 440L495 432L494 431L496 427L496 419L493 416L493 418L491 416L491 412L487 410L487 408L485 410L486 411L484 411L485 414L482 416L475 411L471 411L468 412L468 414L465 416L460 417L454 423L450 424L442 424L442 418L438 418L437 413L432 414L423 411L419 415L417 420L415 418L416 413L414 412L412 414L407 415L403 415L398 412L396 414L394 412L394 414L390 410L387 411L386 407L383 408L378 403L378 401L374 403L369 398L367 398L367 396L366 397L365 395L363 395L362 392L357 391L355 395L341 385L338 386L335 383L335 377M570 471L565 470L561 467M573 600L572 591M581 516L584 520L585 525M589 549L587 557M601 621L609 618M631 590L636 584M655 560L658 551M659 518L659 527M667 493L662 501M682 469L676 477M687 454L689 444" id="国界"/><path class="leaflet-interactive" stroke="#201920" stroke-opacity="1" stroke-width="2" stroke-linecap="butt" stroke-linejoin="round" stroke-dasharray="4,4" stroke-dashoffset="4" fill="none" d="M304 325L306 323L304 321L304 313L302 311L299 310L297 312L295 310" id="争议"/><path class="leaflet-interactive" stroke="gray" stroke-opacity="1" stroke-width="1" stroke-linecap="round" stroke-linejoin="round" stroke-dasharray="8,4,4,4" fill="none" d="M615 465L615 465M620 462L618 462L617 465L622 465L622 463L620 462" id="港澳"/><path class="leaflet-interactive" stroke="#4190da" stroke-opacity="1" stroke-width="1" stroke-linecap="round" stroke-linejoin="round" fill="none" d="M619 464L619 462L617 463L616 460L615 465L613 467L612 466L612 468L609 467L607 469L604 468L602 470L592 472L588 475L588 477L591 480L589 482L585 482L583 476L585 472L583 470L581 472L579 472L579 470L570 471M589 474L589 474M589 474L589 476L589 474M615 465L615 465M619 464L619 464M619 464L619 464M619 464L619 464M666 425L663 426L665 426L666 429L663 430L664 433L662 435L666 435L664 437L661 436L661 438L659 438L660 439L659 440L659 438L657 442L656 441L657 442L655 445L652 444L652 446L646 453L642 453L638 459L632 459L630 461L628 459L625 462L623 460L623 462L622 463L622 461L620 463L622 463L619 464M666 425L666 425M681 403L679 407L680 410L677 413L676 412L675 415L674 414L666 427L665 426L667 424L666 425M679 329L677 331L673 331L674 334L673 333L672 336L669 337L669 335L669 337L660 348L670 356L674 366L674 370L679 374L678 375L682 377L682 379L677 377L675 379L677 381M677 381L683 386L682 387L684 389L680 387L675 390L678 391L682 396L684 396L681 398L683 399L682 403M679 329L679 329M679 329L679 329M685 303L682 307L678 309L675 308L680 305L680 303L679 304L676 301L678 301L678 299L685 292L684 289L683 290L681 288L676 287L671 292L671 294L664 297L661 300L661 302L655 306L655 308L652 307L652 305L650 305L648 309L648 313L650 313L650 315L657 316L660 319L661 318L661 320L658 321L658 323L661 326L665 326L665 324L669 321L668 320L672 319L678 321L678 323L684 322L688 324L685 329L679 329M679 329L679 329M681 403L681 403M681 403L681 403M681 403L681 403M682 403L681 403M682 403L682 403M684 395L684 395M684 395L684 395M684 395L684 395M685 395L684 395M684 395L682 393L684 393L685 395M685 395L685 395M685 393L686 392L685 393M685 393L685 393M685 303L685 303M702 295L700 299L694 299L685 303M686 388L686 388M686 388L686 388M688 387L688 387M577 470L577 470M579 475L579 475M582 485L582 485M582 589L583 587L586 588L585 587L582 589M583 500L575 496L575 490L580 485L592 482L595 486L592 489L590 495L584 498L583 500M586 585L587 584L586 585M589 478L589 478M590 474L590 474M590 585L590 585M590 583L591 582L590 583M591 475L591 473L591 475M591 481L591 481M591 583L591 583M591 476L591 476M596 519L596 519M598 509L599 508L598 509M598 579L598 579M598 514L598 514M598 573L598 573M599 587L599 587M599 585L599 585M599 514L599 514M599 513L599 513M599 584L600 585L599 584M599 516L599 516M599 578L600 579L599 578M599 513L599 513M600 586L600 586M600 513L600 513M600 516L601 515L600 516M600 514L601 513L600 514M600 517L600 517M602 583L602 583M602 515L602 515M602 617L602 617M604 577L604 577M604 577L604 577M604 617L604 617M604 511L604 511M604 520L604 520M604 509L605 510L604 509M604 576L605 577L604 576M604 616L604 616M605 576L605 576M605 603L605 603M605 510L605 510M605 511L605 511M606 515L605 516L606 515M606 470L606 470M606 602L606 602M606 518L607 517L606 518M606 514L607 513L606 514M606 571L606 571M606 603L607 602L606 603M606 601L607 602L606 601M607 577L607 577M607 600L607 600M607 607L607 607M607 470L607 470M607 603L607 603M607 605L607 605M607 514L608 515L607 514M607 607L607 607M608 469L607 470L608 469M608 515L608 515M608 512L608 512M609 470L608 469L609 470M609 576L609 576M609 470L609 470M609 511L609 511M609 585L609 585M609 571L609 571M609 571L609 571M610 608L610 608M610 580L610 580M610 488L610 488M610 570L610 570M610 468L610 468M611 467L611 467M611 468L611 468M612 467L612 467M612 597L612 597M612 583L612 583M612 583L613 582L612 583M615 465L615 465M615 565L615 565M615 592L615 592M615 576L616 575L615 576M616 574L616 574M616 467L616 467M616 521L616 521M616 467L616 467M616 467L616 467M616 467L616 467M616 587L617 586L616 587M617 589L617 589M617 463L617 463M617 466L617 466M617 491L617 491M617 465L619 465L617 465M617 567L617 567M617 522L617 522M617 520L618 521L617 520M617 584L618 583L617 584M617 587L622 584L623 585L621 587L617 587M618 576L617 577L618 576M618 519L618 519M618 577L618 577M618 576L619 577L618 576M618 523L618 523M619 567L619 567M619 560L619 560M619 583L619 583M619 518L619 518M619 465L619 465M620 467L620 467M620 572L620 572M620 464L620 464M620 467L620 467M620 577L620 577M620 517L620 517M620 466L620 466M620 522L620 522M620 565L620 565M620 569L620 569M620 465L620 465M620 521L621 522L620 521M621 570L621 570M621 556L621 556M621 462L621 462M621 559L621 559M621 464L621 464M621 566L621 566M621 561L621 561M621 555L621 555M622 517L622 517M622 568L622 568M622 521L622 521M622 569L622 569M622 560L622 560M622 561L622 561M622 568L622 568M622 583L623 582L622 583M623 568L623 568M623 568L623 568M623 556L623 556M623 568L623 568M623 577L624 576L623 577M623 521L623 521M623 568L624 567L623 568M623 556L624 555L623 556M623 463L623 463M624 587L624 587M624 582L624 582M624 564L624 564M624 555L624 555M624 559L625 558L624 559M624 516L624 516M624 569L624 569M625 582L625 582M625 558L625 558M625 519L625 519M625 561L625 561M625 590L625 590M625 584L625 584M626 560L626 560M626 517L626 517M626 588L626 588M626 558L626 558M628 580L629 581L628 580M628 579L629 580L628 579M629 566L629 566M629 535L629 535M630 572L630 572M630 568L630 568M630 580L631 579L630 580M632 563L632 563M632 563L632 563M632 563L632 563M632 564L633 563L632 564M633 563L633 563M633 570L634 569L633 570M633 560L633 560M634 475L634 475M634 474L635 475L634 474M634 573L634 573M635 567L635 567M636 571L636 571M637 576L637 576M638 569L638 569M638 574L638 574M638 569L638 569M638 564L640 564L638 564M639 569L639 569M640 563L640 563M640 515L640 515M640 555L641 556L640 555M640 478L640 478M640 575L640 575M641 477L641 479L641 477M641 563L641 563M644 454L642 454L644 454M644 562L644 562M644 561L644 561M645 565L645 565M645 562L646 561L645 562M645 558L645 558M645 567L645 567M646 559L646 559M648 562L648 562M648 559L648 559M648 525L649 524L648 525M649 561L649 561M651 445L651 445M652 445L651 444L652 445M652 446L653 445L652 446M654 445L653 446L654 445M656 306L656 306M657 305L657 305M657 305L658 306L657 305M662 456L662 456M662 439L663 438L662 439M663 455L663 455M663 452L663 452M663 452L663 452M663 435L663 435M664 430L664 430M664 453L663 454L664 453M664 434L664 434M664 435L664 435M664 426L665 425L664 426M664 437L664 437M664 437L664 437M665 426L665 426M666 435L666 435M666 430L666 430M666 432L666 432M667 454L667 454M667 429L666 430L667 429M667 427L667 427M668 427L668 427M668 426L668 426M668 424L668 424M668 340L668 340M669 423L669 423M669 464L669 464M669 423L669 423M670 320L670 320M671 428L671 428M672 318L671 317L672 318M672 467L668 460L667 453L673 443L678 438L680 438L682 440L682 445L678 457L674 462L674 468L672 467M672 317L672 317M672 318L672 318M673 316L673 316M673 291L673 291M673 314L673 314M674 313L674 313M674 314L674 314M675 333L675 333M675 414L675 414M675 418L675 418M675 414L676 413L675 414M676 414L677 413L676 414M678 378L683 381L682 382L676 378L678 378M678 371L678 371M678 461L678 461M679 466L679 466M680 467L680 467M680 381L680 381M680 403L680 403M681 407L681 407M681 383L679 382L681 383M681 382L683 383L681 382M681 394L681 394M681 406L681 406M681 407L682 406L681 407M682 409L682 409M682 394L681 395L682 394M682 383L682 383M682 409L682 409M682 436L682 436M682 442L682 442M682 394L682 394M682 384L683 383L682 384M682 392L682 392M683 403L683 403M683 397L683 397M683 395L683 395M683 393L683 393M683 389L683 389M683 395L683 395M683 395L683 395M684 395L684 395M684 395L684 395M684 393L684 393M684 392L685 393L684 392M684 393L684 393M684 400L684 400M684 398L683 397L684 398M684 398L684 398M684 395L685 396L684 395M685 396L685 396M685 396L685 396M685 398L684 397L685 398M685 396L686 395L686 397L685 396M686 305L686 305M686 395L686 395M686 391L686 391M687 391L687 391M687 305L687 305M687 304L687 304M687 389L687 389M688 305L689 304L688 305M689 394L689 394M689 307L688 306L689 307M689 388L689 388M689 388L689 388M691 301L690 302L691 301M691 302L691 302M692 307L692 307M693 434L695 434L693 434M695 433L695 433M696 432L697 433L696 432M696 435L696 435M696 434L696 434M696 435L696 435M696 299L696 299M703 432L702 433L703 432" id="海洋"/><path class="leaflet-interactive" stroke="#747569" stroke-opacity="0.6" stroke-width="1" stroke-linecap="round" stroke-linejoin="round" fill="none" d="M423 336L414 333L404 333L396 335L393 340L385 340L378 344L369 343L368 340L364 340L364 342L362 342L360 345L348 343L348 345L346 347L345 346L344 351L342 353L341 352L337 354M487 371L485 371L485 373L482 376L480 376L479 379L476 377L475 380L473 378L470 379L468 377L469 374L468 375L466 373L468 373L466 373L463 370L457 372L452 371L450 369L443 369L438 366L432 366L428 364L422 356L424 356L424 348L422 348L421 345L424 339L420 337L423 336M445 307L438 308L436 310L430 310L429 312L426 313L427 315L429 315L429 320L431 320L436 327L434 327L431 330L431 332L434 333L432 337L426 335L424 337L423 336M520 361L519 362L518 360L516 360L512 356L512 354L513 353L522 356L522 354L524 354L521 351L521 349L525 345L524 344L528 342L527 339L529 339L530 337L528 331L525 328L527 326L521 320L520 321L516 319L507 312L507 314L505 314L497 306L492 307L490 309L485 305L481 305L482 310L479 313L479 315L477 314L475 316L471 313L462 314L460 309L456 310L456 308L451 308L450 305L445 307M477 267L473 270L475 273L473 277L468 279L465 278L457 285L455 289L449 290L447 300L444 304L445 307M540 323L533 319L533 313L537 311L540 306L538 304L539 303L536 302L530 306L526 304L520 306L522 308L520 310L513 307L512 303L502 298L508 290L507 287L499 287L499 289L498 288L495 290L495 288L492 290L492 287L489 285L487 281L488 279L483 266M499 402L497 388L494 383L497 382L493 378L491 372L487 371M520 361L519 366L515 364L516 369L510 371L508 369L507 370L505 366L504 369L497 366L493 356L489 355L487 356L487 358L485 358L485 360L488 363L485 366L486 367L484 367L485 370L487 371M491 412L491 410L495 412L495 404L497 406L497 402L499 402M548 416L547 413L543 415L541 413L541 407L537 407L537 410L533 412L534 415L529 420L530 427L527 430L527 428L520 431L520 429L518 429L518 425L512 417L513 416L511 414L509 416L506 413L506 408L503 406L501 408L501 412L499 410L499 402M550 367L549 370L543 370L540 367L541 364L539 360L532 359L529 354L523 358L526 361L521 366L520 361M567 319L564 316L558 314L562 307L560 303L556 304L556 306L555 305L553 309L553 317L551 320L540 323M540 323L542 323L549 330L548 331L550 335L550 340L552 340L552 342L554 342L557 345L557 341L562 338L562 336L558 334L558 328L560 326L564 326M548 416L548 418L544 420L540 420L537 418L535 422L536 427L542 425L543 426L540 435L543 438L545 438L542 443M542 443L542 445L546 445L548 449L553 448L555 450L554 454L553 453L550 456M582 431L581 434L578 433L577 434L579 434L579 436L576 435L575 438L571 436L572 437L568 439L565 438L564 435L554 443L547 440L543 444L542 443M557 409L555 407L551 409L551 411L552 410L556 412L557 414L555 416L548 416M564 326L564 328L571 332L572 331L575 334L575 343L573 345L568 344L568 348L558 346L559 349L557 351L560 354L558 354L559 361L553 361L552 364L554 365L551 368L550 367M574 374L568 374L567 372L565 372L566 371L564 372L562 370L563 369L556 370L554 368L551 369L550 367M580 409L579 412L577 412L573 404L569 404L567 402L565 402L565 406L562 405L560 409L558 409L558 407L557 409M557 409L556 405L552 405L552 403L548 399L552 395L550 393L554 391L556 393L559 392L559 394L562 395L565 392L565 388L570 387L570 383L574 380L572 376L574 374M564 326L564 322L567 319M595 303L595 301L592 304L589 304L587 302L588 303L586 305L585 304L586 305L579 312L579 317L577 317L575 321L567 319M574 374L583 379M583 379L588 384L588 386L582 390L573 390L573 392L575 393L573 397L575 397L578 400L577 401L579 400L580 403M580 403L580 409M618 404L616 404L615 397L611 400L610 397L605 400L601 396L597 396L595 394L591 394L591 398L584 397L584 399L583 398L580 403M582 431L582 429L580 429L582 421L577 422L577 420L579 420L578 419L582 417L580 409M602 443L601 442L598 444L598 440L594 440L598 433L596 433L595 428L591 428L588 432L586 430L584 432L582 431M594 364L592 366L590 364L582 364L584 368L585 367L588 370L584 370L582 372L583 379M584 471L584 472M584 471L588 467L589 468L589 466L592 465L592 463L595 460L597 460L597 454L603 446L602 443M585 483L586 483M587 483L589 482M589 351L588 348L591 341L589 327L593 321L590 318L590 316L593 313L594 308L596 306L595 303M589 351L594 364M589 351L599 349L602 346L603 347L603 345L609 345L615 341L616 334M590 482L591 481M629 382L627 380L624 381L623 378L618 379L616 375L617 374L615 372L613 374L611 372L604 373L600 371L594 364M594 365L594 365M619 289L619 291L609 293L609 295L606 293L601 301L598 300L598 302L595 303M602 443L604 439L608 439L608 441L610 441L611 438L609 438L611 436L615 438L618 436M630 336L627 335L626 337L616 334M616 334L614 330L616 330L616 328L617 329L616 326L619 323L619 319L617 315L615 315L615 311L617 309L616 307L621 306L623 302L622 299L618 297L618 295L619 296L619 294L622 293L619 289M636 397L634 398L630 396L630 398L628 398L625 401L621 401L618 404M618 436L618 432L620 430L618 430L619 427L617 425L617 420L615 418L615 416L620 411L620 407L618 404M618 436L618 438L624 438L624 440L622 440L620 444L622 445L629 442L633 444L632 443L634 441M660 283L653 282L653 274L652 275L650 273L651 272L649 268L643 270L639 276L638 275L635 278L633 276L629 278L629 280L625 280L626 276L622 274L620 280L617 281L619 289M636 351L636 353L639 354L640 357L637 360L633 356L631 358L632 361L630 361L629 364L625 366L628 369L628 371L634 371L634 377L631 378L629 382M636 397L633 391L633 387L635 385L629 382M650 314L645 319L641 319L638 322L637 321L636 324L634 324L634 326L629 331L630 336M636 351L630 351L630 349L628 349L628 347L627 348L625 346L633 338L635 338L635 336L629 340L630 336M634 441L633 438L640 427L639 424L643 422L644 419L642 417L645 416L645 414L648 415L654 411M644 453L641 444L639 444L637 442L638 441L634 441M652 401L652 399L648 399L645 396L643 396L644 397L641 399L640 398L642 396L640 394L636 397M637 351L636 351M661 347L657 347L657 349L654 350L653 353L650 350L648 352L645 351L645 353L641 347L638 348L637 351M664 384L663 385L661 383L657 383L656 382L658 380L656 380L656 378L655 379L653 377L655 375L654 374L656 374L655 371L659 371L660 368L657 367L657 369L653 369L653 367L650 364L652 360L648 360L649 359L646 356L637 351M646 294L644 292L647 289L643 289L639 285L637 287L638 288L632 291L634 293L630 297L630 299L633 302L637 302L639 300L641 301M648 311L645 312L640 309L642 305L641 301M642 300L641 301M642 300L644 300L644 296M644 296L641 297L642 300M644 453L645 454M646 294L644 296M645 455L646 455M646 294L649 297L647 297L647 299L651 305M652 401L658 395L657 394L662 391L660 389L663 388L664 384M652 401L651 404L654 407L654 411M670 421L669 418L665 420L663 416L660 419L657 418L657 411L654 411M660 283L662 281L662 271L667 276L667 278L673 272L674 273L677 270L681 270L683 267L691 267L694 264L696 264L696 260M665 297L665 294L662 291L660 291L660 289L657 288L660 283M674 385L671 388L664 384M672 422L673 422M673 313L675 313M682 380L677 377L676 383L674 385M677 389L674 385M678 389L679 389M694 219L694 221L693 220L691 222L686 215L687 212L701 200L703 206L705 194L709 192L708 184L715 169L709 161L706 163L706 165L691 166L688 157L689 154L685 150L682 153L680 153L680 151L677 149L681 143L679 139M679 389L680 388M681 388L682 388M683 387L684 387M686 387L687 387M688 386L689 386M758 259L753 259L749 253L747 255L747 253L744 255L743 254L741 258L739 258L735 252L734 247L731 250L732 251L729 252L726 246L723 247L724 242L722 240L714 240L712 236L703 237L699 233L699 227L692 228M692 228L691 224L696 222L696 220L695 221L694 219M692 228L689 230L689 234L686 231L683 232L681 230L680 233L683 235L685 239L683 242L685 250L690 249L692 247L695 256L695 258L693 258L696 260M694 219L694 219M694 219L694 219M694 219L694 219M696 260L697 259L702 264L702 266L705 263L706 264L708 272L710 274L711 273L709 275L709 279L711 279L710 280L713 283L711 287L713 287M553 343L554 342L553 343M582 425L583 424L582 425M610 397L610 397" id="省界"/><path class="leaflet-interactive" stroke="#8B908F" stroke-opacity="0.5" stroke-width="1" stroke-linecap="butt" stroke-linejoin="bevel" fill="#eee" fill-opacity="0.5" fill-rule="evenodd" d="M645 290L647 290L642 289L640 285L635 290L632 291L634 293L633 295L630 296L630 299L633 302L637 302L639 300L640 301L642 299L641 296L646 295L644 293L645 290z" id="北京市"/><path class="leaflet-interactive" stroke="#8B908F" stroke-opacity="0.5" stroke-width="1" stroke-linecap="butt" stroke-linejoin="bevel" fill="#eee" fill-opacity="0.5" fill-rule="evenodd" d="M649 303L650 302L647 299L647 297L649 297L646 294L644 296L644 300L641 301L642 305L640 309L648 311L650 307L649 306L651 304L648 303zM649 303L649 303z" id="天津市"/><path class="leaflet-interactive" stroke="#8B908F" stroke-opacity="0.5" stroke-width="1" stroke-linecap="butt" stroke-linejoin="bevel" fill="#eee" fill-opacity="0.5" fill-rule="evenodd" d="M646 290L644 292L649 297L647 297L647 299L654 308L661 302L661 299L665 297L663 291L661 291L658 288L658 286L661 283L653 282L653 274L652 275L650 273L651 272L649 268L643 270L640 276L634 276L629 278L629 280L626 279L626 276L624 274L622 274L620 280L617 281L617 285L621 293L623 293L618 296L622 298L622 304L618 306L615 311L615 315L618 317L619 320L616 326L617 327L614 331L617 334L626 337L628 335L629 336L629 332L633 328L634 324L637 322L638 323L641 319L645 319L650 314L647 311L643 311L640 309L642 305L640 300L638 302L632 302L630 300L630 297L634 293L632 291L635 290L640 285L642 289L646 290zM644 296L641 297L642 300L644 300L644 296zM649 303L648 303zM657 305L657 306z" id="河北省"/><path class="leaflet-interactive" stroke="#8B908F" stroke-opacity="0.5" stroke-width="1" stroke-linecap="butt" stroke-linejoin="bevel" fill="#eee" fill-opacity="0.5" fill-rule="evenodd" d="M589 351L599 349L602 346L603 347L603 345L609 345L615 341L616 334L614 330L617 328L616 327L619 322L618 317L615 314L617 310L616 307L621 306L623 302L622 299L618 296L623 293L621 293L620 289L615 293L612 292L609 293L608 295L606 293L601 301L599 300L596 303L593 313L590 316L590 318L593 321L589 327L591 339L588 348L589 351z" id="山西省"/><path class="leaflet-interactive" stroke="#8B908F" stroke-opacity="0.5" stroke-width="1" stroke-linecap="butt" stroke-linejoin="bevel" fill="#eee" fill-opacity="0.5" fill-rule="evenodd" d="M483 266L488 279L486 281L492 287L492 290L496 290L498 288L499 289L499 287L506 287L508 290L507 294L502 298L512 303L512 307L515 307L518 310L520 310L522 308L520 306L525 304L529 306L533 303L538 302L540 306L537 311L533 313L533 319L541 323L550 320L553 317L553 309L555 305L556 306L556 304L559 303L562 306L562 308L558 314L561 316L565 316L565 318L570 319L570 321L575 321L576 318L579 317L578 314L586 305L585 304L586 305L588 303L587 302L589 304L591 304L594 301L596 303L599 300L600 301L606 293L608 295L612 292L615 293L619 291L617 281L620 280L622 274L624 274L626 276L625 279L628 280L633 276L635 278L638 275L639 276L642 274L642 270L646 270L649 268L651 272L650 273L652 275L653 274L653 282L660 283L662 281L662 275L660 273L662 271L667 276L667 278L673 272L674 273L677 270L681 270L687 266L690 267L696 263L696 261L693 258L695 258L695 256L692 247L685 251L683 244L685 240L680 233L681 230L683 232L686 231L689 234L689 230L692 228L691 224L696 222L695 219L693 219L694 220L692 222L690 221L690 219L686 215L687 212L695 207L701 200L703 206L705 194L709 192L708 184L715 169L709 161L706 163L706 165L691 165L688 158L689 153L687 153L684 150L681 153L677 149L681 143L680 140L675 139L667 147L667 149L672 149L673 156L666 163L667 164L662 171L663 172L660 178L662 178L661 181L648 188L640 184L633 200L633 204L631 205L631 208L634 211L637 208L646 211L650 206L655 207L665 217L666 222L664 224L659 223L657 221L649 224L647 223L645 226L641 226L636 232L637 233L632 237L624 237L619 243L615 245L609 244L606 241L601 241L598 249L602 257L594 261L589 267L577 271L566 270L557 273L546 280L543 279L542 277L531 276L527 273L525 274L518 269L497 269L484 267z" id="内蒙古自治区"/><path class="leaflet-interactive" stroke="#8B908F" stroke-opacity="0.5" stroke-width="1" stroke-linecap="butt" stroke-linejoin="bevel" fill="#eee" fill-opacity="0.5" fill-rule="evenodd" d="M695 299L699 299L706 291L707 292L713 287L713 283L710 280L711 279L709 279L709 275L711 273L710 274L708 272L708 268L705 263L702 266L702 263L697 259L695 264L692 265L693 266L686 266L686 268L684 267L681 270L677 270L667 278L667 276L662 271L660 273L662 275L662 280L658 285L658 288L661 291L663 291L665 297L671 294L671 292L676 287L681 287L685 291L682 294L683 295L678 299L679 300L676 302L680 304L680 306L679 305L679 307L678 306L676 310L681 307L682 308L681 307L687 302L695 299zM688 304L688 304zM685 305L685 305zM688 304L689 305L688 304zM689 307L688 306L689 307zM691 301L690 302L691 301zM687 304L687 305zM673 291L673 291zM691 302L691 302zM692 307L692 307zM696 299L697 299z" id="辽宁省"/><path class="leaflet-interactive" stroke="#8B908F" stroke-opacity="0.5" stroke-width="1" stroke-linecap="butt" stroke-linejoin="bevel" fill="#eee" fill-opacity="0.5" fill-rule="evenodd" d="M744 271L746 264L748 264L752 270L752 268L750 267L754 266L757 263L758 260L750 257L750 253L748 255L746 253L742 255L741 258L739 258L735 252L734 247L731 250L732 251L729 252L726 246L723 247L724 242L722 240L714 240L712 236L708 238L706 236L703 237L699 233L699 229L697 227L693 227L689 230L689 234L686 231L683 232L681 230L680 233L683 235L685 240L683 242L685 250L687 251L692 247L695 256L695 258L693 258L695 260L697 259L700 262L701 261L701 264L703 266L705 263L706 264L708 272L710 274L711 273L709 275L709 279L711 279L710 280L713 283L713 287L716 286L722 277L726 281L733 282L731 275L739 275L742 270L744 271z" id="吉林省"/><path class="leaflet-interactive" stroke="#8B908F" stroke-opacity="0.5" stroke-width="1" stroke-linecap="butt" stroke-linejoin="bevel" fill="#eee" fill-opacity="0.5" fill-rule="evenodd" d="M695 228L699 228L699 232L703 237L706 236L708 238L712 236L714 240L722 240L724 242L723 247L726 246L730 252L732 252L731 249L734 247L735 252L739 258L741 258L741 256L746 253L748 255L750 253L750 257L756 260L757 253L755 244L762 239L771 242L772 241L772 237L779 226L778 225L781 217L780 216L785 211L785 203L788 201L772 205L769 208L768 207L769 208L767 210L756 211L752 206L754 204L751 199L753 196L749 196L742 189L739 190L736 187L730 188L728 186L728 179L726 179L725 172L722 169L723 166L721 166L722 163L720 162L721 161L718 157L719 156L715 148L716 147L712 145L713 144L711 142L705 142L695 136L680 138L679 139L681 143L676 149L679 150L680 153L682 153L685 150L689 154L688 157L691 166L706 165L708 161L715 168L713 176L708 183L709 191L705 193L703 206L701 200L690 211L687 212L686 215L691 222L693 220L694 221L694 219L695 221L696 220L696 222L691 223L692 227L695 228z" id="黑龙江省"/><path class="leaflet-interactive" stroke="#8B908F" stroke-opacity="0.5" stroke-width="1" stroke-linecap="butt" stroke-linejoin="bevel" fill="#eee" fill-opacity="0.5" fill-rule="evenodd" d="M674 385L678 389L683 386L678 381L676 381L674 385zM682 380L677 377L676 378L679 381L683 381zM681 383L679 381L681 383zM681 382L684 383L681 382zM680 381L679 381zM682 384L682 383zM682 383L682 383z" id="上海市"/><path class="leaflet-interactive" stroke="#8B908F" stroke-opacity="0.5" stroke-width="1" stroke-linecap="butt" stroke-linejoin="bevel" fill="#eee" fill-opacity="0.5" fill-rule="evenodd" d="M645 352L644 353L641 348L637 350L644 356L647 356L649 360L651 360L650 365L652 365L654 369L658 367L660 369L659 372L655 370L656 373L653 377L655 379L656 378L656 380L658 380L656 383L662 383L661 384L665 384L671 388L678 380L676 379L677 377L682 380L682 377L674 369L670 356L662 350L660 346L657 347L654 353L652 353L650 350L648 352L645 352z" id="江苏省"/><path class="leaflet-interactive" stroke="#8B908F" stroke-opacity="0.5" stroke-width="1" stroke-linecap="butt" stroke-linejoin="bevel" fill="#eee" fill-opacity="0.5" fill-rule="evenodd" d="M654 411L657 412L657 418L660 419L664 416L665 419L669 418L671 421L672 417L676 415L675 412L676 413L680 411L680 403L683 402L681 398L684 396L680 395L675 390L677 388L674 385L671 388L665 384L663 388L660 389L662 391L659 392L657 394L658 395L651 402L651 404L654 407L654 410zM684 395L685 396L685 394L683 393L684 395zM684 393L684 394zM685 398L685 398zM686 388L686 388zM684 392L685 393L684 392zM685 393L685 392zM683 403L683 402zM686 396L686 396zM686 391L686 391zM681 406L682 406zM685 396L685 397zM681 403L681 403zM676 417L676 417zM682 388L683 389L682 388zM682 409L682 409zM684 398L683 397L684 398zM686 395L686 396zM687 389L687 389zM682 409L682 409zM683 393L683 393zM686 395L686 395zM681 395L682 394L681 395zM675 418L675 418zM682 402L683 403L682 402zM683 397L683 398zM682 394L682 394zM682 392L682 392zM684 395L684 395zM685 398L685 397zM676 415L676 415zM689 394L689 394zM685 392L685 392zM685 396L685 396zM689 388L689 388zM675 414L676 413L675 414zM676 414L677 413L676 414zM686 395L686 395zM689 388L689 388zM684 395L685 395zM683 395L683 395zM675 414L675 413zM686 396L686 396zM684 395L684 395z" id="浙江省"/><path class="leaflet-interactive" stroke="#8B908F" stroke-opacity="0.5" stroke-width="1" stroke-linecap="butt" stroke-linejoin="bevel" fill="#eee" fill-opacity="0.5" fill-rule="evenodd" d="M639 357L640 358L636 360L632 356L632 361L630 361L629 364L625 366L628 369L628 371L634 371L634 378L632 378L629 381L633 385L635 385L632 389L636 397L639 396L639 394L642 396L640 398L641 399L644 396L646 396L647 399L654 400L658 395L657 394L662 391L660 389L662 389L664 385L661 384L662 383L656 383L658 381L654 377L656 373L655 370L659 372L660 369L658 367L654 369L652 365L650 365L652 360L648 360L649 358L647 356L643 356L638 351L636 352L637 354L639 354L639 357zM657 381L658 381zM640 398L640 398zM630 372L630 372z" id="安徽省"/><path class="leaflet-interactive" stroke="#8B908F" stroke-opacity="0.5" stroke-width="1" stroke-linecap="butt" stroke-linejoin="bevel" fill="#eee" fill-opacity="0.5" fill-rule="evenodd" d="M659 441L658 438L660 440L659 439L662 438L660 438L660 436L666 436L662 434L664 434L664 430L666 428L664 426L666 426L666 424L667 425L665 427L668 426L667 425L670 422L670 420L665 420L663 416L661 419L658 418L656 410L653 411L653 413L649 415L646 414L643 417L644 419L639 424L640 427L638 431L635 433L633 441L637 441L639 443L638 444L641 443L642 450L645 453L652 447L651 444L655 445L657 443L656 442L659 441zM654 445L653 446L654 445zM662 439L663 438L662 439zM663 435L663 435zM666 430L666 429zM652 446L652 445zM666 425L666 425zM652 445L651 444L652 445zM666 430L666 430zM664 430L663 430zM667 427L667 427zM664 435L664 434zM665 426L665 426zM668 426L668 426zM669 423L669 423zM668 424L668 424zM664 426L665 425L664 426z" id="福建省"/><path class="leaflet-interactive" stroke="#8B908F" stroke-opacity="0.5" stroke-width="1" stroke-linecap="butt" stroke-linejoin="bevel" fill="#eee" fill-opacity="0.5" fill-rule="evenodd" d="M652 401L651 399L647 399L646 396L644 396L641 399L640 398L642 396L640 394L634 398L630 396L630 398L628 398L625 401L621 401L618 404L620 406L620 411L616 415L615 419L617 419L616 422L619 427L618 429L620 429L618 437L624 438L620 443L622 445L629 442L632 444L633 443L635 434L640 427L639 424L644 420L643 417L646 414L649 415L654 412L654 408L651 404L652 401z" id="江西省"/><path class="leaflet-interactive" stroke="#8B908F" stroke-opacity="0.5" stroke-width="1" stroke-linecap="butt" stroke-linejoin="bevel" fill="#eee" fill-opacity="0.5" fill-rule="evenodd" d="M637 351L638 348L641 347L644 352L648 352L650 350L653 353L655 350L657 350L656 349L658 347L662 346L662 344L669 337L669 335L669 337L672 336L673 333L674 334L673 331L674 332L682 328L685 329L688 323L678 323L678 321L672 319L668 320L669 321L665 324L665 326L661 326L658 322L661 321L661 319L658 316L655 317L650 314L645 319L641 319L638 322L637 321L637 323L636 322L637 323L634 324L634 326L629 331L629 340L635 336L635 338L633 338L625 346L632 352L637 351zM672 318L673 318zM672 317L672 317zM675 333L674 333zM673 316L673 315zM674 314L674 313zM668 340L668 339zM672 318L671 317zM673 314L673 314zM679 321L679 321zM679 321L679 321zM679 321L679 321zM630 338L630 338z" id="山东省"/><path class="leaflet-interactive" stroke="#8B908F" stroke-opacity="0.5" stroke-width="1" stroke-linecap="butt" stroke-linejoin="bevel" fill="#eee" fill-opacity="0.5" fill-rule="evenodd" d="M608 373L611 372L614 374L616 372L618 379L623 379L624 381L627 380L629 382L630 379L634 378L634 372L630 372L628 368L625 367L629 365L632 356L636 360L640 358L636 351L630 351L630 349L628 349L627 347L626 348L625 345L635 337L630 338L629 340L630 337L628 335L626 337L617 334L615 341L610 345L603 344L602 347L589 352L596 368L603 373L607 373zM616 373L616 374z" id="河南省"/><path class="leaflet-interactive" stroke="#8B908F" stroke-opacity="0.5" stroke-width="1" stroke-linecap="butt" stroke-linejoin="bevel" fill="#eee" fill-opacity="0.5" fill-rule="evenodd" d="M595 365L582 365L585 368L587 368L586 371L583 370L582 374L583 379L587 382L588 386L581 390L573 390L575 393L573 397L575 397L578 400L577 401L579 400L580 403L581 400L583 398L584 399L584 397L591 398L591 394L601 396L604 399L608 399L610 397L611 400L615 396L615 402L617 404L620 401L626 401L625 400L631 396L634 398L635 397L635 393L633 391L633 387L635 385L631 384L627 380L624 381L623 378L618 379L616 373L603 373L600 370L599 371L595 365zM579 390L579 390zM595 365L595 365zM608 373L608 373zM609 397L610 397z" id="湖北省"/><path class="leaflet-interactive" stroke="#8B908F" stroke-opacity="0.5" stroke-width="1" stroke-linecap="butt" stroke-linejoin="bevel" fill="#eee" fill-opacity="0.5" fill-rule="evenodd" d="M602 443L604 439L608 439L608 441L610 441L609 438L611 436L615 438L618 435L618 431L620 430L618 430L619 427L617 425L617 419L615 419L615 417L616 414L619 413L618 412L620 410L620 406L617 403L616 404L615 397L611 400L610 397L608 399L604 399L601 396L590 394L590 398L582 398L580 402L580 413L582 417L580 419L579 418L579 420L576 422L581 421L583 423L583 425L581 425L580 428L585 433L585 430L589 432L591 429L597 429L596 432L598 432L594 441L598 439L598 443L602 442zM582 425L582 425z" id="湖南省"/><path class="leaflet-interactive" stroke="#8B908F" stroke-opacity="0.5" stroke-width="1" stroke-linecap="butt" stroke-linejoin="bevel" fill="#eee" fill-opacity="0.5" fill-rule="evenodd" d="M615 465L616 461L622 463L623 460L625 462L628 459L630 461L632 459L638 459L641 456L641 454L644 453L641 443L638 444L639 443L637 441L633 441L633 444L631 444L630 442L622 445L620 443L624 439L623 437L618 438L618 436L612 436L610 438L609 437L611 439L609 441L607 439L603 440L604 441L602 443L602 449L597 454L598 457L595 461L592 462L591 465L589 465L588 468L587 467L585 470L584 469L585 472L583 476L585 482L589 482L591 480L588 477L590 473L602 470L604 468L612 468L615 465zM643 454L643 454zM609 469L608 470L609 469zM606 470L607 470zM620 466L620 466zM590 474L591 475L591 473L590 474zM606 470L606 469zM590 475L588 475L591 475zM616 467L616 467zM616 467L616 467zM611 468L611 468zM617 463L617 463zM620 467L620 467zM620 467L619 467zM641 477L642 478L640 479L642 479L641 477zM610 468L610 468zM589 478L589 478zM591 476L591 476zM591 481L591 481zM634 474L635 475L634 474zM634 475L634 475zM633 460L633 460zM633 460L633 460z" id="广东省"/><path class="leaflet-interactive" stroke="#8B908F" stroke-opacity="0.5" stroke-width="1" stroke-linecap="butt" stroke-linejoin="bevel" fill="#eee" fill-opacity="0.5" fill-rule="evenodd" d="M582 431L581 434L578 433L577 434L579 434L577 436L576 435L575 438L574 436L572 436L571 439L569 439L563 435L561 439L554 443L547 440L544 444L542 444L549 449L554 448L556 450L555 453L553 453L550 456L553 459L558 458L560 460L558 464L560 465L559 467L570 471L575 469L578 470L578 472L580 472L583 470L584 471L584 469L585 470L588 467L589 468L589 466L592 465L592 463L598 458L598 452L602 450L601 448L603 446L601 442L598 444L597 439L595 441L594 440L598 433L596 433L596 429L591 429L588 432L586 430L585 433L582 431zM547 441L547 441zM579 475L579 475z" id="广西壮族自治区"/><path class="leaflet-interactive" stroke="#8B908F" stroke-opacity="0.5" stroke-width="1" stroke-linecap="butt" stroke-linejoin="bevel" fill="#eee" fill-opacity="0.5" fill-rule="evenodd" d="M587 484L580 485L575 490L575 496L577 498L583 500L591 494L591 491L595 487L592 483L587 483zM604 617L604 617zM612 583L613 582zM602 617L602 617zM598 509L599 508L598 509zM648 525L648 524zM604 616L604 616zM600 516L601 516zM599 516L600 516zM617 587L621 587L623 585L622 584L618 587zM618 576L619 577L618 576zM618 577L618 577zM602 515L602 515zM600 514L601 513L600 514zM604 577L604 577zM617 589L617 589zM620 577L620 577zM604 509L605 510L604 509zM624 564L624 564zM633 570L633 569zM623 568L624 567zM616 587L617 586zM582 589L584 587L586 588L582 588zM637 576L637 576zM606 518L607 517L606 518zM607 577L607 577zM622 560L623 560zM606 515L606 515zM638 564L639 564zM605 510L605 510zM598 514L599 514zM630 568L631 568zM624 582L624 582zM622 583L623 582zM628 580L629 581L628 580zM617 584L618 583zM630 572L630 572zM638 574L638 574zM615 576L616 575L615 576zM624 559L625 558L624 559zM623 556L623 555zM626 560L626 560zM599 514L599 514zM618 576L618 577zM586 585L586 584zM640 555L641 556L640 555zM600 513L600 513zM606 514L607 513L606 514zM600 517L601 517zM617 567L617 566zM625 582L625 582zM639 569L639 570zM629 566L629 566zM641 563L641 563zM624 516L624 516zM634 573L634 573zM616 574L616 574zM624 587L624 587zM622 561L623 561zM649 561L649 561zM620 565L620 565zM624 555L624 555zM640 563L640 563zM590 583L591 582L590 583zM598 579L598 579zM628 579L629 579zM612 583L612 583zM619 560L619 560zM645 565L645 564zM620 517L620 517zM591 583L591 583zM630 580L631 579zM599 587L599 587zM599 578L600 578zM590 585L590 585zM605 576L605 576zM638 569L638 569zM602 583L602 583zM622 521L622 521zM626 558L627 558zM619 518L619 518zM635 567L635 566zM645 562L645 561zM625 590L625 590zM609 576L609 576zM600 586L600 586zM604 577L604 577zM606 601L607 601zM623 577L623 576zM625 584L625 583zM610 580L610 580zM615 592L615 592zM640 515L640 515zM645 567L645 566zM610 488L610 488zM622 517L622 517zM617 491L617 491zM607 607L608 607zM599 584L599 584zM604 576L605 576zM609 585L610 585zM607 603L607 603zM606 603L606 602zM629 535L629 535zM615 565L615 565zM617 522L617 522zM610 608L610 608zM607 607L607 607zM605 603L605 603zM604 511L604 511zM604 520L604 520zM607 605L607 605zM606 602L606 602zM612 597L612 597zM636 571L636 571zM626 588L626 587zM599 585L599 585zM618 519L618 519zM626 517L626 518zM640 575L640 575zM607 514L608 514zM596 485L596 485zM632 564L633 564zM644 561L644 562zM608 515L608 515zM633 563L633 563zM606 571L607 571zM623 521L623 521zM645 558L645 559zM648 559L648 559zM620 572L620 572zM624 569L624 570zM607 600L607 600z" id="海南省"/><path class="leaflet-interactive" stroke="#8B908F" stroke-opacity="0.5" stroke-width="1" stroke-linecap="butt" stroke-linejoin="bevel" fill="#eee" fill-opacity="0.5" fill-rule="evenodd" d="M557 409L558 406L559 409L563 405L564 406L566 402L568 402L569 405L573 403L573 407L575 407L575 409L578 412L581 408L581 404L579 400L577 400L577 398L573 397L575 393L573 391L575 391L576 389L579 390L587 387L588 384L586 381L584 379L580 379L578 376L574 374L574 376L572 376L574 380L570 384L571 383L569 388L565 388L566 389L562 395L560 395L559 392L556 393L552 391L552 393L550 393L552 395L549 401L552 402L552 404L554 404L557 408zM579 389L579 390zM551 394L551 394zM579 390L579 390zM562 395L562 395z" id="重庆市"/><path class="leaflet-interactive" stroke="#8B908F" stroke-opacity="0.5" stroke-width="1" stroke-linecap="butt" stroke-linejoin="bevel" fill="#eee" fill-opacity="0.5" fill-rule="evenodd" d="M515 421L520 431L529 428L529 420L534 415L534 411L535 412L537 410L536 409L540 407L540 411L542 411L540 413L542 415L548 413L549 416L556 416L556 412L552 410L551 411L551 409L554 406L557 409L556 405L552 405L552 403L548 399L552 396L551 393L550 394L553 391L556 393L559 392L559 394L562 395L566 388L570 387L570 383L574 380L572 376L574 376L574 374L570 374L567 372L566 373L566 371L563 372L562 369L555 370L555 368L553 368L551 370L550 367L549 370L543 370L540 367L541 364L539 360L532 359L529 354L524 357L526 361L521 366L520 361L519 366L515 364L516 369L510 371L508 369L507 370L505 366L504 369L497 366L493 356L487 356L485 360L488 363L485 365L486 366L484 368L492 374L496 382L494 384L497 388L499 409L501 412L501 408L503 406L507 410L506 413L509 416L511 414L515 421zM556 393L556 393zM562 394L562 394zM550 393L550 393z" id="四川省"/><path class="leaflet-interactive" stroke="#8B908F" stroke-opacity="0.5" stroke-width="1" stroke-linecap="butt" stroke-linejoin="bevel" fill="#eee" fill-opacity="0.5" fill-rule="evenodd" d="M580 409L579 412L577 412L576 409L575 410L575 408L573 407L573 403L569 405L569 403L566 402L565 405L563 405L559 409L558 406L557 409L554 406L551 409L551 411L552 410L556 412L556 415L550 415L547 419L544 420L541 418L539 420L537 418L535 422L536 427L543 426L540 435L543 438L545 438L542 442L544 444L548 440L554 444L556 442L555 441L561 439L563 435L565 436L565 438L570 439L572 437L571 436L575 437L575 435L577 436L579 434L577 434L578 433L581 434L582 429L580 429L580 425L582 425L582 421L577 422L579 420L578 419L582 417L580 409zM582 424L582 424zM582 425L583 425z" id="贵州省"/><path class="leaflet-interactive" stroke="#8B908F" stroke-opacity="0.5" stroke-width="1" stroke-linecap="butt" stroke-linejoin="bevel" fill="#eee" fill-opacity="0.5" fill-rule="evenodd" d="M548 416L546 412L545 414L542 415L540 413L542 411L540 411L541 408L537 408L537 410L535 412L534 411L533 416L529 420L530 427L527 430L527 428L521 431L514 421L512 417L513 416L511 414L509 416L506 413L507 410L503 406L501 408L501 412L499 410L499 402L497 402L497 406L495 404L494 407L496 410L494 412L492 410L491 411L492 418L495 417L496 420L496 430L494 430L495 432L487 440L488 441L486 445L488 447L486 449L487 450L491 448L497 448L495 450L497 453L496 454L498 457L502 457L499 465L504 466L508 471L512 471L514 469L516 471L515 472L519 474L520 469L518 464L520 462L523 463L526 460L530 463L533 460L537 462L540 459L541 461L545 459L544 458L547 455L550 456L553 453L555 453L556 450L554 448L549 449L546 445L542 445L544 440L544 438L541 435L543 426L541 425L537 427L535 424L537 418L539 420L541 418L545 420L548 417z" id="云南省"/><path class="leaflet-interactive" stroke="#8B908F" stroke-opacity="0.5" stroke-width="1" stroke-linecap="butt" stroke-linejoin="bevel" fill="#eee" fill-opacity="0.5" fill-rule="evenodd" d="M423 336L414 333L404 333L396 335L393 340L392 339L390 341L387 339L378 344L369 343L368 340L364 340L364 342L362 342L360 345L348 343L348 345L346 347L345 346L344 351L342 353L338 353L334 357L334 361L339 368L338 373L336 373L335 370L332 371L332 375L335 377L335 383L338 386L341 385L346 390L347 389L351 391L355 395L357 391L362 392L374 403L376 401L379 402L378 403L383 408L386 407L388 411L391 410L393 414L395 412L395 414L399 412L402 415L410 415L412 413L416 413L415 418L417 420L424 411L432 413L434 415L436 413L438 417L442 419L443 424L454 423L460 417L465 416L468 414L468 412L471 411L475 411L482 415L485 413L484 412L486 408L491 412L491 410L495 412L495 404L497 406L497 402L499 402L497 393L498 392L496 385L494 383L497 382L493 378L491 372L484 371L485 374L484 373L483 376L479 376L480 379L476 377L475 380L473 378L470 379L468 377L469 374L466 374L467 373L462 370L454 372L449 369L443 369L438 366L432 366L428 364L422 357L424 355L424 348L422 348L421 345L424 339L420 337L423 336z" id="西藏自治区"/><path class="leaflet-interactive" stroke="#8B908F" stroke-opacity="0.5" stroke-width="1" stroke-linecap="butt" stroke-linejoin="bevel" fill="#eee" fill-opacity="0.5" fill-rule="evenodd" d="M589 351L588 348L591 341L589 327L593 321L590 315L594 311L594 307L596 304L595 301L591 304L587 302L588 303L586 305L585 304L586 305L579 312L579 317L577 317L575 321L571 321L568 318L564 322L564 328L571 332L572 331L575 334L575 344L568 344L568 348L558 346L559 349L557 351L560 354L558 354L559 356L557 358L559 361L553 361L552 364L554 365L552 368L550 368L554 368L556 370L562 369L563 372L566 371L566 373L567 372L570 375L573 374L583 379L582 372L584 370L588 370L585 367L584 368L584 366L582 365L591 364L592 366L594 364L589 351zM594 362L594 362zM555 369L555 369z" id="陕西省"/><path class="leaflet-interactive" stroke="#8B908F" stroke-opacity="0.5" stroke-width="1" stroke-linecap="butt" stroke-linejoin="bevel" fill="#eee" fill-opacity="0.5" fill-rule="evenodd" d="M558 340L557 345L553 343L554 342L552 342L549 339L549 329L542 323L537 322L535 319L533 319L533 313L537 311L540 306L538 302L533 303L530 306L525 304L522 305L522 308L520 310L513 307L512 303L510 303L504 298L501 298L506 294L508 290L507 287L499 287L499 289L498 288L495 290L495 288L492 290L492 287L489 285L487 281L487 275L483 266L475 268L473 270L475 273L474 276L468 279L465 278L457 285L455 289L449 290L447 300L444 304L445 307L447 305L451 305L451 308L455 308L457 310L460 309L462 313L471 313L475 316L477 314L479 315L479 313L482 310L482 305L491 309L492 306L494 308L496 306L499 307L498 308L505 314L507 315L507 312L510 315L511 314L515 319L523 321L530 337L521 349L521 351L524 354L520 356L513 353L512 354L515 360L520 362L521 361L521 365L524 364L523 363L525 363L526 361L523 357L525 357L528 354L531 356L532 359L539 360L541 364L540 367L543 370L549 370L550 367L553 367L553 361L559 361L558 354L560 354L557 351L559 349L558 346L567 348L569 347L567 345L568 344L574 345L574 339L576 337L575 333L566 329L563 326L559 326L559 330L557 332L558 335L562 337L561 340L559 340zM554 342L555 342zM528 334L529 334zM555 343L555 343zM558 340L558 340z" id="甘肃省"/><path class="leaflet-interactive" stroke="#8B908F" stroke-opacity="0.5" stroke-width="1" stroke-linecap="butt" stroke-linejoin="bevel" fill="#eee" fill-opacity="0.5" fill-rule="evenodd" d="M528 334L528 330L522 320L521 321L519 319L515 319L513 315L512 316L507 312L507 314L505 314L497 306L495 306L494 308L492 306L490 309L485 305L481 305L482 310L479 313L479 315L477 314L475 316L471 313L462 314L460 309L457 310L455 308L451 308L451 306L448 305L436 310L431 310L426 313L427 315L430 314L429 320L436 326L431 329L431 331L434 332L434 335L432 337L426 335L424 337L420 337L424 339L421 344L421 346L424 349L424 355L422 357L428 364L432 366L435 365L443 369L452 370L454 372L462 370L469 375L468 377L470 379L473 378L475 380L476 377L480 379L479 376L480 377L483 376L484 373L485 374L484 371L486 371L485 366L487 363L485 359L488 355L493 357L496 364L500 368L503 369L505 367L507 369L506 370L509 369L511 371L516 369L515 364L518 364L519 366L520 362L516 360L512 355L514 353L519 356L524 354L521 351L521 349L525 345L524 344L528 342L527 340L530 337L529 334z" id="青海省"/><path class="leaflet-interactive" stroke="#8B908F" stroke-opacity="0.5" stroke-width="1" stroke-linecap="butt" stroke-linejoin="bevel" fill="#eee" fill-opacity="0.5" fill-rule="evenodd" d="M564 326L564 322L567 319L564 316L558 314L562 307L560 303L556 304L556 306L555 305L553 309L553 317L551 320L540 323L542 323L549 330L548 331L550 335L550 340L552 340L552 342L554 342L557 345L557 340L561 340L562 337L558 334L558 328L560 326L564 326zM554 342L554 343zM555 343L555 343z" id="宁夏回族自治区"/><path class="leaflet-interactive" stroke="#8B908F" stroke-opacity="0.5" stroke-width="1" stroke-linecap="butt" stroke-linejoin="bevel" fill="#eee" fill-opacity="0.5" fill-rule="evenodd" d="M477 267L473 262L470 253L468 253L469 250L465 250L453 242L443 242L437 240L436 241L434 239L433 240L431 235L434 230L432 227L434 223L433 219L431 219L427 210L421 206L418 207L414 205L414 203L409 199L410 198L407 197L407 192L405 194L400 193L400 197L395 202L393 201L389 205L391 214L389 218L385 220L376 219L369 216L363 234L363 236L366 238L365 240L360 239L359 237L357 239L350 241L349 240L344 243L348 246L348 252L351 259L351 262L348 264L349 265L346 268L347 273L342 277L330 282L329 284L327 284L327 286L320 286L315 293L312 292L310 294L310 290L306 292L303 291L304 293L302 293L299 296L298 295L295 298L296 301L293 302L294 307L295 306L294 309L297 312L298 310L303 312L305 320L304 321L306 323L304 325L300 325L311 330L313 332L312 337L315 339L316 338L324 343L329 342L329 346L331 348L330 350L336 354L344 352L345 347L348 345L348 343L360 345L365 340L367 340L370 343L375 344L387 339L389 341L392 340L397 335L401 335L404 333L414 333L424 337L426 335L432 337L434 333L431 330L436 326L430 320L430 314L427 315L426 312L444 307L449 290L455 289L459 283L465 278L467 278L468 280L470 277L472 277L475 273L473 270L475 268z" id="新疆维吾尔自治区"/><path class="leaflet-interactive" stroke="#8B908F" stroke-opacity="0.5" stroke-width="1" stroke-linecap="butt" stroke-linejoin="bevel" fill="#eee" fill-opacity="0.5" fill-rule="evenodd" d="M670 463L673 468L674 462L678 457L682 445L682 439L676 439L671 445L669 451L667 452L669 462zM703 432L703 432zM694 434L695 433L694 434zM664 453L663 454zM696 432L696 432zM663 452L662 453L663 452zM663 455L663 455zM663 452L663 452zM683 435L683 435zM678 461L679 461zM679 466L679 466zM683 436L684 436zM662 456L662 456zM669 464L670 464z" id="台湾省"/><path class="leaflet-interactive" stroke="#8B908F" stroke-opacity="0.5" stroke-width="1" stroke-linecap="butt" stroke-linejoin="bevel" fill="#eee" fill-opacity="0.5" fill-rule="evenodd" d="M619 462L619 464L617 464L618 465L622 463L619 462zM619 465L620 465zM621 463L621 463zM621 463L621 463zM621 463L621 463zM621 464L621 464zM621 463L621 463zM621 464L621 464zM621 464L621 464z" id="香港特别行政区"/><path class="leaflet-interactive" stroke="#8B908F" stroke-opacity="0.5" stroke-width="1" stroke-linecap="butt" stroke-linejoin="bevel" fill="#eee" fill-opacity="0.5" fill-rule="evenodd" d="M615 466L615 465zM615 465L615 465z" id="澳门特别行政区"/><path class="leaflet-interactive" stroke="#8B908F" stroke-opacity="0.5" stroke-width="1" stroke-linecap="butt" stroke-linejoin="bevel" fill="#eee" fill-opacity="0.5" fill-rule="evenodd" d="M687 454L689 444L687 454zM676 477L682 469L676 477zM662 501L667 492L662 501zM659 526L659 517L659 526zM656 558L655 560L658 551L657 554zM631 591L636 584L631 591zM605 620L601 621L609 618L606 619zM572 599L573 600L572 592L572 599zM587 556L589 553L589 549L588 555zM585 524L581 516L584 522z" id="100000_JD"/></g></svg>